<svg xmlns="http://www.w3.org/2000/svg" xmlns:xlink="http://www.w3.org/1999/xlink" id="Layer_1" x="0px" y="0px" viewBox="0 0 689.1 142.1" style="enable-background:new 0 0 689.1 142.1;" xml:space="preserve"><style type="text/css">	.st0{fill:#304269;}	.st1{fill:#EB610E;}	.st2{fill:none;stroke:#EB610E;stroke-width:2;stroke-miterlimit:10;}</style><g>	<path class="st0" d="M165.8,64.9c0-14.9,7.9-23.4,20.6-23.4c4.3,0,8.1,1.3,12.1,4.7V26c0-3.1,2-5.2,5.2-5.2h4.7  c3.1,0,5.2,2,5.2,5.2v67.9c0,3.1-1.7,5.2-4.9,5.2h-3.3c-3.1,0-5-0.6-5.3-3.8l-0.1-0.9c-4.5,4.2-8.6,6-13.6,6  c-12.7,0-20.6-8.6-20.6-23.4L165.8,64.9L165.8,64.9z M198.5,83V59.1c-2.6-2.6-5.8-4.9-9.6-4.9c-5.7,0-7.8,3.8-7.8,12.4v8.7  c0,8.6,2,12.4,7.8,12.4C192.6,87.8,195.4,85.8,198.5,83z"></path>	<path class="st0" d="M225.1,65.2c0-12.3,8.5-23.7,23.7-23.7c15.3,0,23.8,12,23.8,23.7V73c0,1.6-1.3,2.8-2.8,2.8h-29.7v0.9  c0,4.6,1,11.1,10.5,11.1c5.1,0,9-1,10.9-1.4c3.2-0.8,5.6,0.1,6.5,3.5l0.5,2c0.8,2.9-0.4,5.4-3.6,6.4c-2.2,0.6-8,2.3-14.2,2.3  c-18.3,0-25.7-11.9-25.7-23.8L225.1,65.2L225.1,65.2z M257.6,65.4V64c0-5-1.9-9.8-8.6-9.8c-6.7,0-8.7,5-8.7,9.8v1.4H257.6z"></path>	<path class="st0" d="M279.7,48.7c-1-2.9,0.4-5.8,3.6-5.8h5.7c3.1,0,5,1.4,6,5l5.1,16.8c1.6,5.2,3.3,12.7,4.6,19.4  c1.3-6.7,3.1-14.2,4.7-19.4l5.1-16.7c1-3.3,2.9-5.1,6-5.1h5.7c3.1,0,4.5,2.9,3.6,5.8l-15.3,45.5c-1.1,3.2-3.7,4.9-6.8,4.9h-5.9  c-3.1,0-5.7-1.6-6.8-4.9L279.7,48.7z"></path>	<path class="st0" d="M337.4,65.2c0-12.3,8.5-23.7,23.7-23.7c15.3,0,23.8,12,23.8,23.7V73c0,1.6-1.3,2.8-2.8,2.8h-29.7v0.9  c0,4.6,1,11.1,10.5,11.1c5.1,0,9-1,10.9-1.4c3.2-0.8,5.6,0.1,6.5,3.5l0.5,2c0.8,2.9-0.4,5.4-3.6,6.4c-2.2,0.6-8,2.3-14.2,2.3  c-18.3,0-25.7-11.9-25.7-23.8V65.2C337.3,65.2,337.4,65.2,337.4,65.2z M369.8,65.4V64c0-5-1.9-9.8-8.6-9.8s-8.7,5-8.7,9.8v1.4  H369.8z"></path>	<path class="st0" d="M396.1,26c0-3.1,2-5.2,5.2-5.2h4.7c3.1,0,5.2,2,5.2,5.2v58.8c0,1.9,0.3,2.9,1,3.4c1.5,1,2,2.7,1.5,4.9l-1,3.6  c-0.5,2.2-1.8,4-5.7,3.3c-5.6-1.3-10.9-4.3-10.9-13.6L396.1,26L396.1,26z"></path>	<path class="st0" d="M423,67.1c0-15.1,9-25.6,24.7-25.6s24.7,10.5,24.7,25.6v7.7c0,15.6-9.2,25.7-24.7,25.7S423,90.5,423,74.8V67.1  z M457.1,74v-5.9c0-8.7-1.8-13.8-9.4-13.8s-9.4,5.1-9.4,13.8V74c0,9.1,1.9,13.8,9.4,13.8C455.1,87.8,457.1,83,457.1,74z"></path>	<path class="st0" d="M483.9,48.1c0-3.1,2-5.2,5.2-5.2h2.7c3.1,0,5.3,1.2,5.6,3.9l0.1,0.8c4.4-4.2,8.6-6,13.6-6  c12.7,0,20.6,8.5,20.6,23.4v12.2c0,14.8-7.9,23.4-20.6,23.4c-4.3,0-8.1-1.6-12.1-4.9v19.9c0,3.1-2,5.2-5.2,5.2h-4.7  c-3.1,0-5.2-2-5.2-5.2V48.1z M508.6,87.8c5.7,0,7.8-3.8,7.8-12.4v-8.7c0-8.6-2-12.4-7.8-12.4c-3.7,0-6.4,1.9-9.6,5v23.8  C502.3,85.7,505,87.8,508.6,87.8z"></path>	<path class="st0" d="M542.3,27.2c0-4.6,3.7-8.2,8.5-8.2c4.9,0,8.5,3.6,8.5,8.2s-3.7,8.2-8.5,8.2C545.9,35.4,542.3,31.8,542.3,27.2z   M543.2,48.1c0-3.1,2-5.2,5.2-5.2h4.7c3.1,0,5.2,2,5.2,5.2v45.8c0,3.1-2,5.2-5.2,5.2h-4.7c-3.1,0-5.2-2-5.2-5.2V48.1z"></path>	<path class="st0" d="M571.5,48.1c0-3.1,2-5.2,5.2-5.2h2.6c3.1,0,5.3,1.1,5.6,4.1l0.1,0.8c4.5-4.2,9.8-6.3,14.8-6.3  c11.5,0,18,7,18,19.2v33.2c0,3.1-2,5.2-5.2,5.2h-4.7c-3.1,0-5.2-2-5.2-5.2V62.4c0-6-1.8-8.2-6.1-8.2c-3.7,0-6.7,1.6-9.9,4.9v34.8  c0,3.1-2,5.2-5.2,5.2h-4.7c-3.1,0-5.2-2-5.2-5.2L571.5,48.1L571.5,48.1z"></path>	<path class="st0" d="M642.5,108.2h12.9c3.8,0,5.9-2.8,5.9-6.5v-7.3c-4,3.5-7.8,4.6-12.1,4.6c-12.7,0-20.6-8.5-20.6-23.4V64.9  c0-14.9,7.9-23.4,20.6-23.4c5,0,9.2,1.8,13.6,6L663,46c0.3-2.3,1.9-3.1,5.1-3.1h3.6c3.1,0,4.7,2,4.7,5.2v53.3  c0,11.9-7.3,19.4-21,19.4h-11.8c-3.1,0-5.3-1.3-5.7-5l-0.2-1.9C637.4,110.3,639.4,108.2,642.5,108.2z M661.4,81.8V59.2  c-3.3-3.1-6.1-5-9.6-5c-5.7,0-7.8,3.8-7.8,12.4v7.3c0,8.7,2,12.4,7.8,12.4C655.3,86.4,658.1,84.6,661.4,81.8z"></path>	<path class="st1" d="M548.2,36.3h5.1c3.6,0,6.5-2.9,6.5-6.5v-5.1c0-3.6-2.9-6.5-6.5-6.5h-5.1c-3.6,0-6.5,2.9-6.5,6.5v5.1  C541.7,33.3,544.6,36.3,548.2,36.3z"></path></g><path class="st2" d="M33.3,49.1H23.2c-4.3,0-7.9,3.5-7.9,7.9v10.1c0,4.3,3.5,7.9,7.9,7.9h10.1c4.3,0,7.9-3.5,7.9-7.9V57 C41.2,52.6,37.6,49.1,33.3,49.1z"></path><path class="st2" d="M21.7,94.1h-7.5c-3.2,0-5.9,2.6-5.9,5.9v7.5c0,3.2,2.6,5.9,5.9,5.9h7.5c3.2,0,5.9-2.6,5.9-5.9V100 C27.6,96.7,24.9,94.1,21.7,94.1z"></path><path class="st1" d="M74.2,107.5c17.9,0,34.6-14,36.1-31.9c0.8-9.6-2.4-18.8-9-25.9c-6.8-7.3-16.5-11.6-26.7-11.6h-26 c-4.4,0-7.9-3.5-7.9-7.9v-8.7c0-4.4,3.5-7.9,7.9-7.9h25.7c32.5,0,59.6,25.8,60.4,57.6c0.4,15.7-5.3,30.6-16,42 c-11.5,12.2-27.8,18.7-44.6,18.7h-0.3c-4.4,0-7.9-3.5-7.9-7.9v-10.6l0,0c3.4-0.4,4.8-2.3,7.2-4.1L74.2,107.5z"></path><path class="st2" d="M66.1,84.5H54.8c-4.9,0-8.8,4-8.8,8.8v11.3c0,4.9,4,8.8,8.8,8.8h11.3c4.9,0,8.8-4,8.8-8.8V93.3 C74.9,88.4,71,84.5,66.1,84.5z"></path></svg>